<svg id="visual" viewBox="0 0 1920 250" width="1920" height="250" xmlns="http://www.w3.org/2000/svg" xmlns:xlink="http://www.w3.org/1999/xlink" version="1.1"><path d="M0 127L45.7 139.3C91.3 151.7 182.7 176.3 274.2 182C365.7 187.7 457.3 174.3 548.8 170.2C640.3 166 731.7 171 823 172.5C914.3 174 1005.7 172 1097 176.2C1188.3 180.3 1279.7 190.7 1371.2 188.7C1462.7 186.7 1554.3 172.3 1645.8 171.8C1737.3 171.3 1828.7 184.7 1874.3 191.3L1920 198L1920 0L1874.3 0C1828.7 0 1737.3 0 1645.8 0C1554.3 0 1462.7 0 1371.2 0C1279.7 0 1188.3 0 1097 0C1005.7 0 914.3 0 823 0C731.7 0 640.3 0 548.8 0C457.3 0 365.7 0 274.2 0C182.7 0 91.3 0 45.7 0L0 0Z" fill="#a4b494"></path><path d="M0 104L45.7 111.3C91.3 118.7 182.7 133.3 274.2 136C365.7 138.7 457.3 129.3 548.8 133.2C640.3 137 731.7 154 823 152C914.3 150 1005.7 129 1097 125.5C1188.3 122 1279.7 136 1371.2 137C1462.7 138 1554.3 126 1645.8 117.7C1737.3 109.3 1828.7 104.7 1874.3 102.3L1920 100L1920 0L1874.3 0C1828.7 0 1737.3 0 1645.8 0C1554.3 0 1462.7 0 1371.2 0C1279.7 0 1188.3 0 1097 0C1005.7 0 914.3 0 823 0C731.7 0 640.3 0 548.8 0C457.3 0 365.7 0 274.2 0C182.7 0 91.3 0 45.7 0L0 0Z" fill="#8aa574"></path><path d="M0 108L45.7 110.8C91.3 113.7 182.7 119.3 274.2 121C365.7 122.7 457.3 120.3 548.8 119.2C640.3 118 731.7 118 823 116.7C914.3 115.3 1005.7 112.7 1097 105.8C1188.3 99 1279.7 88 1371.2 82.5C1462.7 77 1554.3 77 1645.8 78.5C1737.3 80 1828.7 83 1874.3 84.5L1920 86L1920 0L1874.3 0C1828.7 0 1737.3 0 1645.8 0C1554.3 0 1462.7 0 1371.2 0C1279.7 0 1188.3 0 1097 0C1005.7 0 914.3 0 823 0C731.7 0 640.3 0 548.8 0C457.3 0 365.7 0 274.2 0C182.7 0 91.3 0 45.7 0L0 0Z" fill="#6e9756"></path><path d="M0 74L45.7 71C91.3 68 182.7 62 274.2 60.3C365.7 58.7 457.3 61.3 548.8 61.7C640.3 62 731.7 60 823 58.5C914.3 57 1005.7 56 1097 60.3C1188.3 64.7 1279.7 74.3 1371.2 77.3C1462.7 80.3 1554.3 76.7 1645.8 78C1737.3 79.3 1828.7 85.7 1874.3 88.8L1920 92L1920 0L1874.3 0C1828.7 0 1737.3 0 1645.8 0C1554.3 0 1462.7 0 1371.2 0C1279.7 0 1188.3 0 1097 0C1005.7 0 914.3 0 823 0C731.7 0 640.3 0 548.8 0C457.3 0 365.7 0 274.2 0C182.7 0 91.3 0 45.7 0L0 0Z" fill="#4f8939"></path><path d="M0 39L45.7 37.8C91.3 36.7 182.7 34.3 274.2 37C365.7 39.7 457.3 47.3 548.8 45.8C640.3 44.3 731.7 33.7 823 34.2C914.3 34.7 1005.7 46.3 1097 52.7C1188.3 59 1279.7 60 1371.2 59.2C1462.7 58.3 1554.3 55.7 1645.8 55.3C1737.3 55 1828.7 57 1874.3 58L1920 59L1920 0L1874.3 0C1828.7 0 1737.3 0 1645.8 0C1554.3 0 1462.7 0 1371.2 0C1279.7 0 1188.3 0 1097 0C1005.7 0 914.3 0 823 0C731.7 0 640.3 0 548.8 0C457.3 0 365.7 0 274.2 0C182.7 0 91.3 0 45.7 0L0 0Z" fill="#287b19"></path></svg>