<svg id="visual" viewBox="0 0 1920 250" width="1920" height="250" xmlns="http://www.w3.org/2000/svg" xmlns:xlink="http://www.w3.org/1999/xlink" version="1.1"><path d="M0 219L64 219.8C128 220.7 256 222.3 384 223.7C512 225 640 226 768 222.2C896 218.3 1024 209.7 1152 204C1280 198.3 1408 195.7 1536 199.3C1664 203 1792 213 1856 218L1920 223L1920 0L1856 0C1792 0 1664 0 1536 0C1408 0 1280 0 1152 0C1024 0 896 0 768 0C640 0 512 0 384 0C256 0 128 0 64 0L0 0Z" fill="#27496d"></path><path d="M0 150L64 152.8C128 155.7 256 161.3 384 160.8C512 160.3 640 153.7 768 151.7C896 149.7 1024 152.3 1152 153.8C1280 155.3 1408 155.7 1536 155.8C1664 156 1792 156 1856 156L1920 156L1920 0L1856 0C1792 0 1664 0 1536 0C1408 0 1280 0 1152 0C1024 0 896 0 768 0C640 0 512 0 384 0C256 0 128 0 64 0L0 0Z" fill="#22677d"></path><path d="M0 108L64 113.5C128 119 256 130 384 134.8C512 139.7 640 138.3 768 138.3C896 138.3 1024 139.7 1152 136.8C1280 134 1408 127 1536 126.5C1664 126 1792 132 1856 135L1920 138L1920 0L1856 0C1792 0 1664 0 1536 0C1408 0 1280 0 1152 0C1024 0 896 0 768 0C640 0 512 0 384 0C256 0 128 0 64 0L0 0Z" fill="#428384"></path><path d="M0 102L64 101C128 100 256 98 384 95.7C512 93.3 640 90.7 768 86.5C896 82.3 1024 76.7 1152 73.3C1280 70 1408 69 1536 70.5C1664 72 1792 76 1856 78L1920 80L1920 0L1856 0C1792 0 1664 0 1536 0C1408 0 1280 0 1152 0C1024 0 896 0 768 0C640 0 512 0 384 0C256 0 128 0 64 0L0 0Z" fill="#719d89"></path><path d="M0 43L64 40.3C128 37.7 256 32.3 384 31C512 29.7 640 32.3 768 32.8C896 33.3 1024 31.7 1152 31C1280 30.3 1408 30.7 1536 31.3C1664 32 1792 33 1856 33.5L1920 34L1920 0L1856 0C1792 0 1664 0 1536 0C1408 0 1280 0 1152 0C1024 0 896 0 768 0C640 0 512 0 384 0C256 0 128 0 64 0L0 0Z" fill="#a4b494"></path></svg>