<svg id="visual" viewBox="0 0 900 600" width="900" height="600" xmlns="http://www.w3.org/2000/svg" xmlns:xlink="http://www.w3.org/1999/xlink" version="1.1"><rect x="0" y="0" width="900" height="600" fill="#001220"></rect><path d="M0 376L30 387.2C60 398.3 120 420.7 180 425.2C240 429.7 300 416.3 360 405C420 393.7 480 384.3 540 391.3C600 398.3 660 421.7 720 421C780 420.3 840 395.7 870 383.3L900 371L900 601L870 601C840 601 780 601 720 601C660 601 600 601 540 601C480 601 420 601 360 601C300 601 240 601 180 601C120 601 60 601 30 601L0 601Z" fill="#a1ceae"></path><path d="M0 397L30 410.2C60 423.3 120 449.7 180 450.2C240 450.7 300 425.3 360 418.5C420 411.7 480 423.3 540 430.8C600 438.3 660 441.7 720 441.3C780 441 840 437 870 435L900 433L900 601L870 601C840 601 780 601 720 601C660 601 600 601 540 601C480 601 420 601 360 601C300 601 240 601 180 601C120 601 60 601 30 601L0 601Z" fill="#80ba8b"></path><path d="M0 440L30 441.3C60 442.7 120 445.3 180 449.3C240 453.3 300 458.7 360 462.2C420 465.7 480 467.3 540 471.2C600 475 660 481 720 475.8C780 470.7 840 454.3 870 446.2L900 438L900 601L870 601C840 601 780 601 720 601C660 601 600 601 540 601C480 601 420 601 360 601C300 601 240 601 180 601C120 601 60 601 30 601L0 601Z" fill="#62a568"></path><path d="M0 494L30 495C60 496 120 498 180 500.8C240 503.7 300 507.3 360 505.2C420 503 480 495 540 491.3C600 487.7 660 488.3 720 490C780 491.7 840 494.3 870 495.7L900 497L900 601L870 601C840 601 780 601 720 601C660 601 600 601 540 601C480 601 420 601 360 601C300 601 240 601 180 601C120 601 60 601 30 601L0 601Z" fill="#459043"></path><path d="M0 568L30 567.5C60 567 120 566 180 561.3C240 556.7 300 548.3 360 548.8C420 549.3 480 558.7 540 558.3C600 558 660 548 720 541.3C780 534.7 840 531.3 870 529.7L900 528L900 601L870 601C840 601 780 601 720 601C660 601 600 601 540 601C480 601 420 601 360 601C300 601 240 601 180 601C120 601 60 601 30 601L0 601Z" fill="#287b19"></path></svg>